<svg width="33" height="33" viewBox="0 0 33 33" fill="none" xmlns="http://www.w3.org/2000/svg">
<rect width="33" height="33" rx="16.5" fill="#EB5755"/>
<path d="M25.8612 18.1123C25.9492 19.722 25.2551 21.2693 24.0136 22.2143L24.7664 23.7617C24.9912 24.229 25.0205 24.7794 24.825 25.2675C24.6393 25.7555 24.258 26.1398 23.7888 26.3059L23.0165 26.5655C22.695 26.6806 22.3478 26.6875 22.0224 26.5853C21.697 26.4831 21.4093 26.2767 21.1983 25.9944L19.1259 23.3982C18.2559 23.2424 17.4348 22.8478 16.7407 22.2559C16.2519 22.4116 15.7632 22.4947 15.2744 22.4947C14.4142 22.4947 13.5539 22.2143 12.8305 21.6743C12.3125 21.8405 11.7846 21.9132 11.2469 21.9028C10.4747 21.9132 9.71219 21.747 8.99858 21.4355C8.3117 21.1099 7.72478 20.5858 7.30477 19.9229C6.88476 19.2601 6.64858 18.4851 6.62315 17.6866C6.54495 16.9389 6.66225 16.1808 6.96529 15.4954C6.6818 14.7165 6.65248 13.865 6.89686 13.0757C7.25855 12.0892 7.94283 11.2688 8.7933 10.7495C9.36027 8.9945 10.9537 7.82102 12.7035 7.94564C14.2675 6.38793 16.6625 6.22177 18.4025 7.56141C18.8131 7.44717 19.2432 7.38486 19.6734 7.38486C21.0028 7.35371 22.2638 7.9768 23.0948 9.08797C25.0889 9.63836 26.5162 11.5284 26.5944 13.73C26.6432 14.8827 26.35 16.0146 25.7537 16.9804C25.8221 17.3542 25.8612 17.7281 25.8612 18.1123ZM20.9735 16.6481C21.5307 16.7208 21.9706 17.1673 21.9706 17.7593C21.9706 18.0347 21.8676 18.2988 21.6843 18.4936C21.5009 18.6883 21.2523 18.7977 20.993 18.7977H20.3772C20.0644 19.7324 19.5169 20.5528 18.7936 21.1758C19.0379 21.2693 19.2921 21.3212 19.5463 21.3939C24.5611 21.3212 23.9745 18.0708 23.9745 18.0189C23.9486 17.3055 23.657 16.6324 23.1638 16.1474C22.6707 15.6625 22.0164 15.4055 21.345 15.4331C21.0857 15.4331 20.837 15.3237 20.6537 15.1289C20.4704 14.9342 20.3674 14.67 20.3674 14.3946C20.3674 14.1192 20.4704 13.855 20.6537 13.6603C20.837 13.4655 21.0857 13.3561 21.345 13.3561C22.5473 13.3873 23.7008 13.865 24.6002 14.7061C24.649 14.405 24.6784 14.0934 24.6784 13.7819C24.6197 12.4942 24.0723 11.3726 21.8728 11.1545C20.6509 8.08064 17.5716 9.78375 17.5716 10.7391C17.5423 10.978 17.7769 11.4869 17.816 11.518C18.0753 11.518 18.3239 11.6274 18.5072 11.8222C18.6906 12.0169 18.7936 12.2811 18.7936 12.5565C18.7936 13.1276 18.3537 13.595 17.816 13.595C17.2979 13.5742 16.8091 13.3665 16.4181 13.0134C15.9489 13.3353 15.4113 13.5327 14.8541 13.595C14.2969 13.6469 13.8374 13.2315 13.8081 12.6603C13.7901 12.5247 13.7984 12.3865 13.8324 12.2544C13.8665 12.1223 13.9256 11.9989 14.0062 11.892C14.0867 11.785 14.187 11.6966 14.3009 11.6323C14.4148 11.568 14.5398 11.5291 14.6683 11.518C14.8247 11.4972 15.5872 11.3726 15.5872 10.7184C15.5872 10.033 15.8316 9.37874 16.252 8.8595C15.3526 8.59988 14.3848 8.94258 13.4073 10.1991C11.6086 9.89798 10.8755 10.1576 10.3378 12.1826C9.40915 12.6707 8.92038 13.0134 8.70532 14.0519C9.76106 13.8234 10.8461 13.9169 11.853 14.3115C12.3418 14.5088 12.6155 15.0904 12.4298 15.6511C12.244 16.1912 11.677 16.4612 11.1687 16.2638C10.4551 15.9315 9.65353 15.9108 8.92038 16.2015C8.60756 16.4819 8.60756 17.0635 8.60756 17.5204C8.60756 18.2889 8.96925 19.0054 9.58511 19.4208C10.1032 19.7012 10.68 19.8466 11.2567 19.8362C11.1101 19.5662 10.983 19.2858 10.8755 18.995C10.7985 18.7282 10.8219 18.4401 10.9409 18.1913C11.0598 17.9425 11.2649 17.7523 11.513 17.6609C11.7612 17.5694 12.0331 17.5837 12.2715 17.7009C12.5099 17.818 12.6963 18.0288 12.7914 18.2889C13.1825 19.4727 14.1796 20.2828 15.3526 20.4178C16.6918 20.3451 17.8844 19.5039 18.471 18.2058C18.6958 16.7727 19.7809 16.6481 20.9735 16.6481ZM22.9286 24.4055L22.3225 23.0555L21.6284 23.2216L22.606 24.5197L22.9286 24.4055ZM18.383 15.4642C18.3915 15.1989 18.304 14.9403 18.1386 14.7413C17.9732 14.5424 17.7423 14.4183 17.4934 14.3946C16.7994 14.353 16.1249 14.6023 15.6068 15.0904C15.0496 15.6927 14.7563 16.5235 14.7856 17.3646C14.7856 17.6401 14.8886 17.9042 15.072 18.099C15.2553 18.2937 15.5039 18.4031 15.7632 18.4031C16.3204 18.4031 16.7407 17.9358 16.7407 17.3646C16.7407 17.0842 16.8091 16.8039 16.9656 16.5754C17.0829 16.4715 17.2295 16.4196 17.3859 16.4196C17.9235 16.4508 18.383 16.025 18.383 15.4642Z" fill="white"/>
</svg>
