<svg width="34" height="24" viewBox="0 0 34 24" fill="none" xmlns="http://www.w3.org/2000/svg">
<path fill-rule="evenodd" clip-rule="evenodd" d="M26.5204 2.13349L22.4577 3.36045L25.1634 10.4719C26.794 10.0705 28.5154 10.3087 29.9774 11.1379C31.4393 11.9671 32.5319 13.3251 33.0326 14.9354C33.5333 16.5457 33.4046 18.2872 32.6726 19.8055C31.9407 21.3237 30.6605 22.5046 29.0927 23.1077C27.5249 23.7107 25.7873 23.6907 24.2336 23.0516C22.68 22.4126 21.4271 21.2025 20.73 19.6678C20.0329 18.133 19.944 16.389 20.4813 14.7907C21.0187 13.1924 22.142 11.8599 23.6225 11.0646L22.263 7.49151L17.5757 17.2757C17.5082 17.4163 17.4025 17.5348 17.2708 17.6177C17.1392 17.7005 16.987 17.7444 16.8316 17.7441H13.4808C13.269 19.4165 12.4316 20.9451 11.1386 22.0193C9.84565 23.0934 8.19422 23.6325 6.51997 23.5269C4.84572 23.4213 3.27429 22.6791 2.12507 21.4509C0.975855 20.2228 0.335089 18.601 0.33301 16.9151C0.331759 15.2271 0.97096 13.6022 2.12037 12.3715C3.26978 11.1407 4.8429 10.3966 6.5192 10.2909C8.1955 10.1852 9.84882 10.7258 11.1423 11.8026C12.4358 12.8793 13.2721 14.4112 13.4808 16.0861H15.5431L11.5174 4.7582C11.4857 4.66879 11.4695 4.57457 11.4696 4.47964H10.2322C10.0134 4.47964 9.80357 4.3923 9.64887 4.23683C9.49416 4.08135 9.40725 3.87049 9.40725 3.65061C9.40725 3.43074 9.49416 3.21987 9.64887 3.0644C9.80357 2.90893 10.0134 2.82158 10.2322 2.82158H13.9444C14.1632 2.82158 14.373 2.90893 14.5277 3.0644C14.6824 3.21987 14.7693 3.43074 14.7693 3.65061C14.7693 3.87049 14.6824 4.08135 14.5277 4.23683C14.373 4.3923 14.1632 4.47964 13.9444 4.47964H13.1706L14.6901 8.75495L21.3943 5.20919L20.5983 3.11755C20.5577 3.01103 20.5395 2.89726 20.5448 2.78335C20.55 2.66944 20.5785 2.55783 20.6286 2.45552C20.6787 2.3532 20.7493 2.26236 20.8359 2.1887C20.9225 2.11503 21.0233 2.06011 21.132 2.02737L26.0461 0.545898L26.5204 2.13349V2.13349ZM15.2502 10.3326L16.877 14.9088L20.3665 7.62664L15.2502 10.3326V10.3326ZM25.9603 17.211L24.2172 12.629C23.1483 13.2628 22.3554 14.2769 21.9954 15.4706C21.6355 16.6642 21.7349 17.9501 22.2739 19.0736C22.813 20.197 23.7523 21.0759 24.9057 21.5362C26.0592 21.9965 27.3426 22.0045 28.5016 21.5586C29.6607 21.1128 30.6108 20.2456 31.1636 19.129C31.7165 18.0124 31.8318 16.7278 31.4866 15.5298C31.1415 14.3318 30.3611 13.3078 29.3001 12.6607C28.2391 12.0137 26.975 11.7908 25.7582 12.0362L27.5013 16.6191C27.5759 16.8237 27.5673 17.0495 27.4775 17.2478C27.3876 17.4461 27.2237 17.6009 27.0212 17.6787C26.8187 17.7564 26.5939 17.751 26.3954 17.6635C26.1968 17.576 26.0405 17.4135 25.9603 17.211V17.211ZM11.8136 16.0861H6.93246C6.71367 16.0861 6.50385 16.1734 6.34914 16.3289C6.19444 16.4843 6.10753 16.6952 6.10753 16.9151C6.10753 17.135 6.19444 17.3458 6.34914 17.5013C6.50385 17.6568 6.71367 17.7441 6.93246 17.7441H11.8136C11.6034 18.9711 10.9432 20.0744 9.96318 20.8361C8.98318 21.5978 7.75463 21.9626 6.52006 21.8585C5.2855 21.7544 4.13462 21.1889 3.29464 20.2737C2.45466 19.3586 1.9866 18.1601 1.98287 16.9151C1.98174 15.6671 2.44747 14.4642 3.28765 13.5452C4.12783 12.6262 5.28108 12.0581 6.51857 11.9538C7.75607 11.8494 8.98738 12.2164 9.96822 12.9818C10.9491 13.7473 11.6077 14.8553 11.8136 16.0861V16.0861Z" fill="black"/>
</svg>
