<svg width="49" height="40" viewBox="0 0 49 40" fill="none" xmlns="http://www.w3.org/2000/svg">
<path d="M48.9972 4.87072C47.1943 5.67014 45.2571 6.21043 43.2238 6.45349C45.2994 5.20948 46.8931 3.23952 47.6435 0.892346C45.6704 2.06323 43.5116 2.88819 41.2605 3.33158C39.4268 1.37809 36.8146 0.157227 33.9233 0.157227C28.3719 0.157227 23.871 4.6579 23.871 10.2089C23.871 10.9968 23.96 11.7639 24.1313 12.4998C15.7773 12.0805 8.37057 8.07876 3.41267 1.99723C2.5476 3.48182 2.05191 5.20871 2.05191 7.05062C2.05191 10.5381 3.82664 13.6146 6.52368 15.4173C4.92741 15.3673 3.36626 14.9362 1.97057 14.1599C1.96999 14.202 1.96999 14.2441 1.96999 14.2864C1.96999 19.1567 5.43487 23.2194 10.0331 24.1429C8.55293 24.5454 7.00029 24.6044 5.49382 24.3151C6.77286 28.3086 10.4852 31.2146 14.8837 31.296C11.4435 33.9919 7.10913 35.5989 2.39985 35.5989C1.58836 35.5989 0.788365 35.5513 0.00195312 35.4585C4.45037 38.3105 9.73401 39.9746 15.4106 39.9746C33.8999 39.9746 44.0104 24.6577 44.0104 11.3746C44.0104 10.9387 44.0008 10.5052 43.9813 10.0742C45.9492 8.65155 47.6477 6.8895 48.9972 4.87072" fill="#55ACEE"/>
</svg>
